<?xml version="1.0" ?><svg xmlns="http://www.w3.org/2000/svg" xmlns:xlink="http://www.w3.org/1999/xlink" version="1.1" viewBox="0 0 64 64" style="enable-background:new 0 0 64 64;" xml:space="preserve"><g id="cappucino"/><g id="soft_drink"/><g id="energy_drink"/><g id="milkshake"/><g id="beer"><path d="M48,18h-3v-2c0-1.4-1-2.6-2.4-2.9c0.2-0.7,0.4-1.3,0.4-2.1c0-3.3-2.7-6-6-6c-1.5,0-2.9,0.5-3.9,1.5C31.8,4.4,29.5,3,27,3   s-4.8,1.4-6.1,3.5C19.9,5.5,18.5,5,17,5c-3.3,0-6,2.7-6,6c0,0.7,0.1,1.4,0.4,2.1C10,13.4,9,14.6,9,16v38c0,0.8,0.3,1.5,0.8,2   C9.3,56.5,9,57.2,9,58c0,1.7,1.3,3,3,3h30c1.7,0,3-1.3,3-3c0-0.8-0.3-1.5-0.8-2c0.5-0.5,0.8-1.2,0.8-2v-6h3c3.9,0,7-3.1,7-7V25   C55,21.1,51.9,18,48,18z M45,24h3c0.6,0,1,0.4,1,1v16c0,0.6-0.4,1-1,1h-3V24z M43,16v38c0,0.6-0.4,1-1,1h-3V20c0-0.1,0-0.1,0-0.2   c0-0.1,0-0.2,0-0.3V15h3C42.6,15,43,15.4,43,16z M17,15v8c0,0.6-0.4,1-1,1s-1-0.4-1-1v-8H17z M17,25.8c1.2-0.4,2-1.5,2-2.8v-8h2   v11.5c0,1.9,1.6,3.5,3.5,3.5c0.8,0,1.5,0.7,1.5,1.5v2c0,0.1,0,0.2,0,0.3c0,0.1,0,0.1,0,0.2v21h-9V25.8z M37,15v4.5   c0,0.8-0.7,1.5-1.5,1.5c-1.9,0-3.5,1.6-3.5,3.5v9c0,0.8-0.7,1.5-1.5,1.5h-1c-0.8,0-1.5-0.7-1.5-1.5v-2c0-1.9-1.6-3.5-3.5-3.5   c-0.8,0-1.5-0.7-1.5-1.5V15H37z M28,36.6c0.5,0.2,1,0.4,1.5,0.4h1c1.9,0,3.5-1.6,3.5-3.5v-9c0-0.8,0.7-1.5,1.5-1.5   c0.5,0,1-0.1,1.5-0.4V55h-9V36.6z M17,7c1.4,0,2.6,0.7,3.4,1.9c0.2,0.3,0.6,0.5,1,0.5c0.4-0.1,0.7-0.3,0.8-0.7   C22.8,6.5,24.8,5,27,5s4.2,1.5,4.8,3.6c0.1,0.4,0.4,0.7,0.8,0.7c0.4,0.1,0.8-0.1,1-0.5C34.4,7.7,35.6,7,37,7c2.2,0,4,1.8,4,4   c0,0.7-0.2,1.4-0.5,2H13.5c-0.4-0.6-0.5-1.3-0.5-2C13,8.8,14.8,7,17,7z M11,16c0-0.6,0.4-1,1-1h1v8c0,1.3,0.8,2.4,2,2.8V55h-3   c-0.6,0-1-0.4-1-1V16z M42,59H12c-0.6,0-1-0.4-1-1s0.4-1,1-1h30c0.6,0,1,0.4,1,1S42.6,59,42,59z M53,41c0,2.8-2.2,5-5,5h-3v-2h3   c1.7,0,3-1.3,3-3V25c0-1.7-1.3-3-3-3h-3v-2h3c2.8,0,5,2.2,5,5V41z"/></g><g id="mineral_water"/><g id="coffee_cup"/><g id="wine"/><g id="whiskey"/><g id="kombucha"/><g id="ice_tea"/><g id="tea"/><g id="cocktail"/><g id="juice"/><g id="lemonade"/><g id="mocktail"/><g id="bubble_tea"/><g id="coffee"/><g id="water"/><g id="milk"/></svg>