<?xml version="1.0" encoding="iso-8859-1"?>
<!-- Generator: Adobe Illustrator 18.1.1, SVG Export Plug-In . SVG Version: 6.00 Build 0)  -->
<svg version="1.1" id="Capa_1" xmlns="http://www.w3.org/2000/svg" xmlns:xlink="http://www.w3.org/1999/xlink" x="0px" y="0px"
	 viewBox="0 0 59.103 59.103" style="enable-background:new 0 0 59.103 59.103;" xml:space="preserve">
<g>
	<path d="M24.797,32.425c-0.366-0.333-0.936-0.305-1.271,0.063c-0.334,0.369-0.306,0.938,0.063,1.271
		c1.697,1.537,0.451,3.529,0.331,3.713c-1.708,2.277-0.389,4.556,0.548,5.443c0.175,0.165,0.396,0.246,0.619,0.246
		c0.238,0,0.477-0.094,0.653-0.281c0.342-0.361,0.326-0.931-0.034-1.272c-0.064-0.06-1.529-1.478-0.322-3.089
		C26.194,37.329,27.113,34.522,24.797,32.425z"/>
	<path d="M30.131,32.425c-0.366-0.333-0.937-0.305-1.271,0.063c-0.334,0.369-0.306,0.938,0.064,1.271
		c1.697,1.537,0.451,3.529,0.331,3.713c-1.708,2.277-0.389,4.556,0.548,5.443c0.175,0.165,0.396,0.246,0.619,0.246
		c0.238,0,0.477-0.094,0.653-0.281c0.342-0.361,0.326-0.931-0.034-1.272c-0.064-0.06-1.529-1.478-0.322-3.089
		C31.528,37.329,32.447,34.522,30.131,32.425z"/>
	<path d="M35.465,32.425c-0.367-0.333-0.935-0.305-1.271,0.063c-0.334,0.369-0.306,0.938,0.064,1.271
		c1.697,1.537,0.451,3.529,0.331,3.713c-1.708,2.277-0.389,4.556,0.548,5.443c0.175,0.165,0.396,0.246,0.619,0.246
		c0.238,0,0.477-0.094,0.653-0.281c0.342-0.361,0.326-0.931-0.034-1.272c-0.063-0.06-1.529-1.478-0.322-3.089
		C36.862,37.329,37.781,34.522,35.465,32.425z"/>
	<path d="M40.884,21.477c0-3.486-1.718-6.441-4.74-8.208c0.006-0.136,0.005-0.277,0.003-0.422l-0.001-4.612
		c0-0.522-0.212-0.996-0.555-1.34c0.14-0.228,0.225-0.483,0.225-0.761V1.657C35.817,0.728,34.941,0,33.822,0h-8.808
		c-1.119,0-1.995,0.728-1.995,1.657v4.478c0,0.353,0.128,0.676,0.346,0.943c-0.25,0.322-0.405,0.72-0.405,1.158l0.001,4.495
		c-0.004,0.065-0.021,0.154-0.037,0.25c-0.027,0.169-0.057,0.35-0.069,0.534c-2.881,1.739-4.398,4.474-4.394,7.874l-2.755,27.759
		c0,5.49,4.467,9.956,9.957,9.956h7.78c5.489,0,9.956-4.466,9.952-10.037L40.884,21.477z M30.34,6.292V1.5h1.411v4.792H30.34z
		 M28.84,6.292h-1.411V1.5h1.411V6.292z M34.317,1.657l0.004,4.453c-0.024,0.054-0.204,0.182-0.499,0.182h-0.571V1.5h0.571
		C34.117,1.5,34.297,1.628,34.317,1.657z M25.014,1.5h0.914v4.792h-0.914c-0.295,0-0.475-0.128-0.495-0.157l-0.004-4.453
		C24.54,1.628,24.719,1.5,25.014,1.5z M33.444,57.303h-7.78c-4.498,0-8.156-3.659-8.161-8.067l2.755-27.759
		c0-3.033,1.343-5.282,3.991-6.684c0.258-0.137,0.435-0.39,0.472-0.68c0.021-0.166-0.004-0.332-0.069-0.48
		c0.009-0.106,0.035-0.266,0.051-0.363c0.034-0.212,0.06-0.404,0.06-0.529V8.235c0-0.056,0.044-0.1,0.1-0.1h9.385
		c0.056,0,0.1,0.044,0.1,0.1v4.506l0.002,0.135c0.002,0.1,0.005,0.314-0.009,0.43c-0.102,0.184-0.136,0.398-0.095,0.608
		c0.053,0.273,0.23,0.505,0.479,0.63c2.812,1.416,4.361,3.878,4.365,7.014l2.512,27.588C41.599,53.644,37.941,57.303,33.444,57.303z
		"/>
</g>
<g>
</g>
<g>
</g>
<g>
</g>
<g>
</g>
<g>
</g>
<g>
</g>
<g>
</g>
<g>
</g>
<g>
</g>
<g>
</g>
<g>
</g>
<g>
</g>
<g>
</g>
<g>
</g>
<g>
</g>
</svg>
