<?xml version="1.0" encoding="iso-8859-1"?>
<!-- Generator: Adobe Illustrator 16.0.0, SVG Export Plug-In . SVG Version: 6.00 Build 0)  -->
<!DOCTYPE svg PUBLIC "-//W3C//DTD SVG 1.1//EN" "http://www.w3.org/Graphics/SVG/1.1/DTD/svg11.dtd">
<svg version="1.1" id="Capa_1" xmlns="http://www.w3.org/2000/svg" xmlns:xlink="http://www.w3.org/1999/xlink" x="0px" y="0px"
	 width="50.674px" height="50.674px" viewBox="0 0 50.674 50.674" style="enable-background:new 0 0 50.674 50.674;"
	 xml:space="preserve">
<g>
	<path d="M30.082,33.009c0,0,1.833-4.083,2.417-5.75c0.583-1.667-0.167-4.25-3.417-6.167c-3.25-1.916-12.083-2.333-17.333-1.833
		s-8.75,2.917-9.583,5.333c-0.833,2.417,3.417,10.167,3.417,10.167c-1.333,0-5.583,0.667-5.583,4s2.167,5.833,15.75,5.667
		c13.583-0.167,19.167-3.917,19.25-6.917C35.082,34.509,30.082,33.009,30.082,33.009z M4.166,24.925
		c0.25-1.334,3.917-3.584,7.583-4.084c3.667-0.5,8.667-0.833,11.417-0.083s7.25,1.417,6.667,3.667
		c-0.583,2.25-0.667,2.833-0.667,2.833s-4.75-3.25-7.833-3.333c-3.083-0.084-8,0.166-10.917,1.25
		c-2.917,1.083-3.917,2.417-3.917,2.417S3.916,26.259,4.166,24.925z M25.02,27.404c-0.375-0.438-0.875-0.75-1.625,0
		s-1.312,0.812-1,1.25c0.312,0.438,0.625,0.688-0.125,0.688s-2.688,0-1.812-0.562c0.876-0.562,2-1.438,1.188-1.688
		s-1.375,0.438-1.812,1.062s-0.062,1.312-0.625,1.312s-2.5,0.312-1.438-0.688s2.375-1.875,1.625-2.375s-1.562,0.562-2.125,1.312
		s-0.312,1.5-1.312,1.562c-1,0.062-1.5-0.062-1.5-0.062s0.938-1.438,1.625-1.938s1.188-0.688,1.25-0.938s0.125-1,0.688-1.062
		s2.5-0.625,4.812,0.25s4.25,1.625,4,2.25s-0.25,0.438-1.188,0.875c-0.938,0.438-2,1.125-2,0.5S25.395,27.842,25.02,27.404z
		 M9.645,27.779c0.5,0.25,0.625,0.375,1,0.125s1.062-0.688,1.062-0.688s-1.062,0.875-0.625,1.125s0.75,0.375,1.25-0.062
		c0.5-0.437,1.562-1.625,1.875-1.938c0.313-0.313,0.75-0.938,1-0.938s1.562-0.062,1.188,0.375c-0.374,0.438-1.625,1.312-2.125,2
		c-0.5,0.688-0.75,1.438-1.25,1.438s-1.688-0.188-3.062-0.625c-1.374-0.438-1.438-0.75-1.062-1.062
		c0.376-0.312,0.625-0.875,1.25-0.812C10.145,26.717,9.145,27.529,9.645,27.779z M4.582,28.509c0,0,5,3.083,12.667,2.833
		s11.167-1.583,13.083-3c0,0-3.667,7.75-6.333,8.667c-2.667,0.917-7,1.667-9.917,1.417s-5.333-1.667-6.417-3.75
		C6.582,32.592,4.916,30.176,4.582,28.509z M31.832,39.342c-1.083,0.917-5.917,2.75-9.917,3.084c-4,0.333-10.5,0-15.833-0.917
		s-4.333-2.833-3.5-3.667c0.833-0.833,4-1.5,4-1.5c1.083,2.834,4.333,3.5,7,4s7.167,0,10.333-1s4.917-4.416,4.917-4.416
		s2.417,0.5,3.667,1.5S32.916,38.426,31.832,39.342z M49.52,32.654c-1.125-0.562-3.062-1.062-5.125,0
		c-2.062,1.062-2.688,2.688-2.562,4.062s0.165,1.927-0.312,2.562c-0.375,0.5-2.562,2.812-3.875,4.188
		c-1.313,1.376-1.625,2.375-1.125,3.125s2.562,0.812,3.5,0.188c0.938-0.624,3.438-4.75,4-5.875c0.562-1.125,2.25-1.438,4.938-3.438
		S50.645,33.217,49.52,32.654z M40.27,44.654c-0.75,0.938-2.125,1.375-2.5,1.062c-0.375-0.313,0.375-1,1.812-2.562
		c1.438-1.562,2.938-3.312,3.438-3.375C43.02,39.779,41.02,43.717,40.27,44.654z M47.457,37.029
		c-2.625,1.375-2.812,1.625-3.562,1.688c0,0-1.25-2.875,0-4.125s3.625-1.438,4.5-1.125C49.27,33.78,50.082,35.654,47.457,37.029z
		 M20.207,12.029c1.062,0.562,0.562,1.688-0.062,2.688s-0.438,1.625,0,1.75s1.125-0.938,1.75-2.5s-0.312-2.5-0.938-2.812
		s-0.438-1.25,0.312-2.188s0.9-1.75,0.188-1.75c-0.562,0-1,1.25-1.75,2.438S19.145,11.466,20.207,12.029z M11.895,16.404
		c0,0,0.125,0.875,0.812,0.438s0.625-1.688,0.125-2.375s-0.812-1.188-0.437-1.688s0.688-1.312,0.312-1.562s-1.312,0.75-1.562,1.5
		s-0.25,1.562,0.188,1.875S12.145,15.841,11.895,16.404z M16.145,12.466c1,1-0.625,2.188-0.375,3.062s1.125,0.25,1.875-1.438
		s-0.75-2.938-1.562-3.25s0.688-2.938,1.125-4.5s-0.627-3.208-0.688-2.812c-0.312,2.062-0.75,3.938-1.625,6.062
		S15.145,11.466,16.145,12.466z"/>
</g>
<g>
</g>
<g>
</g>
<g>
</g>
<g>
</g>
<g>
</g>
<g>
</g>
<g>
</g>
<g>
</g>
<g>
</g>
<g>
</g>
<g>
</g>
<g>
</g>
<g>
</g>
<g>
</g>
<g>
</g>
</svg>
